<mxfile host="app.diagrams.net" modified="2024-01-04T08:20:59.213Z" agent="Mozilla/5.0 (Windows NT 10.0; Win64; x64) AppleWebKit/537.36 (KHTML, like Gecko) Chrome/120.0.0.0 Safari/537.36" etag="ZvkiuBU7hZbBY0ngEp4v" version="22.1.16" type="device" pages="5">
  <diagram name="Entry_point" id="c0hLZXdn9E_coPLfsac1">
    <mxGraphModel dx="1221" dy="725" grid="1" gridSize="10" guides="1" tooltips="1" connect="1" arrows="1" fold="1" page="1" pageScale="1" pageWidth="1654" pageHeight="1169" math="0" shadow="0">
      <root>
        <mxCell id="0" />
        <mxCell id="1" parent="0" />
        <mxCell id="lFE6wIospnwltuepOsA1-13" value="" style="edgeStyle=orthogonalEdgeStyle;rounded=0;orthogonalLoop=1;jettySize=auto;html=1;" parent="1" source="lFE6wIospnwltuepOsA1-1" target="lFE6wIospnwltuepOsA1-3" edge="1">
          <mxGeometry relative="1" as="geometry" />
        </mxCell>
        <mxCell id="lFE6wIospnwltuepOsA1-1" value="Start" style="strokeWidth=2;html=1;shape=mxgraph.flowchart.terminator;whiteSpace=wrap;" parent="1" vertex="1">
          <mxGeometry x="520" y="160" width="120" height="40" as="geometry" />
        </mxCell>
        <mxCell id="lFE6wIospnwltuepOsA1-10" value="No account" style="edgeStyle=orthogonalEdgeStyle;rounded=0;orthogonalLoop=1;jettySize=auto;html=1;" parent="1" source="lFE6wIospnwltuepOsA1-2" target="lFE6wIospnwltuepOsA1-9" edge="1">
          <mxGeometry relative="1" as="geometry">
            <Array as="points">
              <mxPoint x="310" y="460" />
              <mxPoint x="310" y="460" />
            </Array>
          </mxGeometry>
        </mxCell>
        <mxCell id="myGewdImtbe0IOwLtQ24-9" style="edgeStyle=orthogonalEdgeStyle;rounded=0;orthogonalLoop=1;jettySize=auto;html=1;" parent="1" source="lFE6wIospnwltuepOsA1-2" target="myGewdImtbe0IOwLtQ24-8" edge="1">
          <mxGeometry relative="1" as="geometry" />
        </mxCell>
        <mxCell id="lFE6wIospnwltuepOsA1-2" value="Login" style="rounded=1;whiteSpace=wrap;html=1;absoluteArcSize=1;arcSize=14;strokeWidth=2;" parent="1" vertex="1">
          <mxGeometry x="280" y="360" width="200" height="40" as="geometry" />
        </mxCell>
        <mxCell id="lFE6wIospnwltuepOsA1-6" value="No" style="edgeStyle=orthogonalEdgeStyle;rounded=0;orthogonalLoop=1;jettySize=auto;html=1;" parent="1" source="lFE6wIospnwltuepOsA1-3" target="lFE6wIospnwltuepOsA1-2" edge="1">
          <mxGeometry relative="1" as="geometry">
            <Array as="points">
              <mxPoint x="385" y="290" />
            </Array>
          </mxGeometry>
        </mxCell>
        <mxCell id="lFE6wIospnwltuepOsA1-7" value="Yes" style="edgeStyle=orthogonalEdgeStyle;rounded=0;orthogonalLoop=1;jettySize=auto;html=1;" parent="1" source="lFE6wIospnwltuepOsA1-3" target="lFE6wIospnwltuepOsA1-5" edge="1">
          <mxGeometry relative="1" as="geometry">
            <Array as="points">
              <mxPoint x="775" y="290" />
            </Array>
          </mxGeometry>
        </mxCell>
        <mxCell id="lFE6wIospnwltuepOsA1-3" value="Is there a user in the cache?" style="strokeWidth=2;html=1;shape=mxgraph.flowchart.decision;whiteSpace=wrap;" parent="1" vertex="1">
          <mxGeometry x="480" y="240" width="200" height="100" as="geometry" />
        </mxCell>
        <mxCell id="lFE6wIospnwltuepOsA1-5" value="Dashboard" style="rounded=1;whiteSpace=wrap;html=1;absoluteArcSize=1;arcSize=14;strokeWidth=2;fillColor=#0050ef;fontColor=#ffffff;strokeColor=#001DBC;" parent="1" vertex="1">
          <mxGeometry x="680" y="360" width="200" height="40" as="geometry" />
        </mxCell>
        <mxCell id="lFE6wIospnwltuepOsA1-12" value="Already have&lt;br&gt;an account" style="edgeStyle=orthogonalEdgeStyle;rounded=0;orthogonalLoop=1;jettySize=auto;html=1;" parent="1" source="lFE6wIospnwltuepOsA1-9" target="lFE6wIospnwltuepOsA1-2" edge="1">
          <mxGeometry relative="1" as="geometry">
            <Array as="points">
              <mxPoint x="450" y="460" />
              <mxPoint x="450" y="460" />
            </Array>
          </mxGeometry>
        </mxCell>
        <mxCell id="myGewdImtbe0IOwLtQ24-5" value="" style="edgeStyle=orthogonalEdgeStyle;rounded=0;orthogonalLoop=1;jettySize=auto;html=1;" parent="1" source="lFE6wIospnwltuepOsA1-9" target="myGewdImtbe0IOwLtQ24-1" edge="1">
          <mxGeometry relative="1" as="geometry" />
        </mxCell>
        <mxCell id="lFE6wIospnwltuepOsA1-9" value="Sign up" style="rounded=1;whiteSpace=wrap;html=1;absoluteArcSize=1;arcSize=14;strokeWidth=2;" parent="1" vertex="1">
          <mxGeometry x="280" y="480" width="200" height="40" as="geometry" />
        </mxCell>
        <mxCell id="myGewdImtbe0IOwLtQ24-6" value="Yes" style="edgeStyle=orthogonalEdgeStyle;rounded=0;orthogonalLoop=1;jettySize=auto;html=1;exitX=0.5;exitY=0;exitDx=0;exitDy=0;exitPerimeter=0;entryX=0;entryY=0.5;entryDx=0;entryDy=0;" parent="1" source="myGewdImtbe0IOwLtQ24-1" target="lFE6wIospnwltuepOsA1-2" edge="1">
          <mxGeometry relative="1" as="geometry" />
        </mxCell>
        <mxCell id="myGewdImtbe0IOwLtQ24-7" value="No" style="edgeStyle=orthogonalEdgeStyle;rounded=0;orthogonalLoop=1;jettySize=auto;html=1;" parent="1" source="myGewdImtbe0IOwLtQ24-1" target="lFE6wIospnwltuepOsA1-9" edge="1">
          <mxGeometry relative="1" as="geometry">
            <Array as="points">
              <mxPoint x="170" y="560" />
              <mxPoint x="380" y="560" />
            </Array>
          </mxGeometry>
        </mxCell>
        <mxCell id="myGewdImtbe0IOwLtQ24-1" value="Accettable&lt;br&gt;data?" style="strokeWidth=2;html=1;shape=mxgraph.flowchart.decision;whiteSpace=wrap;" parent="1" vertex="1">
          <mxGeometry x="110" y="470" width="120" height="60" as="geometry" />
        </mxCell>
        <mxCell id="myGewdImtbe0IOwLtQ24-10" value="Yes" style="edgeStyle=orthogonalEdgeStyle;rounded=0;orthogonalLoop=1;jettySize=auto;html=1;" parent="1" source="myGewdImtbe0IOwLtQ24-8" target="lFE6wIospnwltuepOsA1-5" edge="1">
          <mxGeometry relative="1" as="geometry" />
        </mxCell>
        <mxCell id="myGewdImtbe0IOwLtQ24-14" value="No" style="edgeStyle=elbowEdgeStyle;rounded=0;orthogonalLoop=1;jettySize=auto;html=1;exitX=0.5;exitY=1;exitDx=0;exitDy=0;exitPerimeter=0;" parent="1" source="myGewdImtbe0IOwLtQ24-8" target="lFE6wIospnwltuepOsA1-2" edge="1">
          <mxGeometry relative="1" as="geometry">
            <Array as="points">
              <mxPoint x="460" y="350" />
            </Array>
          </mxGeometry>
        </mxCell>
        <mxCell id="myGewdImtbe0IOwLtQ24-8" value="Correct&lt;br&gt;credentials?" style="strokeWidth=2;html=1;shape=mxgraph.flowchart.decision;whiteSpace=wrap;" parent="1" vertex="1">
          <mxGeometry x="520" y="400" width="120" height="60" as="geometry" />
        </mxCell>
      </root>
    </mxGraphModel>
  </diagram>
  <diagram id="c6XEku_GDDdshb9-RIqv" name="EDU">
    <mxGraphModel dx="1744" dy="1053" grid="1" gridSize="10" guides="1" tooltips="1" connect="1" arrows="1" fold="1" page="1" pageScale="1" pageWidth="1654" pageHeight="1169" math="0" shadow="0">
      <root>
        <mxCell id="0" />
        <mxCell id="1" parent="0" />
        <mxCell id="_Xb9ILPCKW9PJ4Opiecp-2" value="Tournament name" style="edgeStyle=orthogonalEdgeStyle;rounded=0;orthogonalLoop=1;jettySize=auto;html=1;" parent="1" source="3kDpuubRiTTmUzGeucn9-1" target="_Xb9ILPCKW9PJ4Opiecp-1" edge="1">
          <mxGeometry x="0.3334" relative="1" as="geometry">
            <Array as="points">
              <mxPoint x="660" y="340" />
            </Array>
            <mxPoint as="offset" />
          </mxGeometry>
        </mxCell>
        <mxCell id="GjFR1XU6Ks8SB_QgHypy-1" value="Create new&lt;br&gt;tournament" style="edgeStyle=orthogonalEdgeStyle;rounded=0;orthogonalLoop=1;jettySize=auto;html=1;" edge="1" parent="1" source="3kDpuubRiTTmUzGeucn9-1" target="n51QgqT_x0kIkijjbNnJ-1">
          <mxGeometry x="0.8654" relative="1" as="geometry">
            <Array as="points">
              <mxPoint x="660" y="1180" />
            </Array>
            <mxPoint as="offset" />
          </mxGeometry>
        </mxCell>
        <mxCell id="GjFR1XU6Ks8SB_QgHypy-8" value="Show all" style="edgeStyle=orthogonalEdgeStyle;rounded=0;orthogonalLoop=1;jettySize=auto;html=1;" edge="1" parent="1" source="3kDpuubRiTTmUzGeucn9-1" target="GjFR1XU6Ks8SB_QgHypy-7">
          <mxGeometry x="0.8754" relative="1" as="geometry">
            <Array as="points">
              <mxPoint x="660" y="1264" />
            </Array>
            <mxPoint as="offset" />
          </mxGeometry>
        </mxCell>
        <mxCell id="GjFR1XU6Ks8SB_QgHypy-11" value="Gamification&lt;br&gt;badges" style="edgeStyle=orthogonalEdgeStyle;rounded=0;orthogonalLoop=1;jettySize=auto;html=1;" edge="1" parent="1" source="3kDpuubRiTTmUzGeucn9-1" target="UqIcxXsMdPtoa4DHIYBH-1">
          <mxGeometry x="0.8898" relative="1" as="geometry">
            <Array as="points">
              <mxPoint x="660" y="1410" />
            </Array>
            <mxPoint as="offset" />
          </mxGeometry>
        </mxCell>
        <mxCell id="3kDpuubRiTTmUzGeucn9-1" value="Dashboard" style="rounded=1;whiteSpace=wrap;html=1;absoluteArcSize=1;arcSize=14;strokeWidth=2;fillColor=#0050ef;fontColor=#ffffff;strokeColor=#001DBC;" parent="1" vertex="1">
          <mxGeometry x="560" y="240" width="200" height="40" as="geometry" />
        </mxCell>
        <mxCell id="_Xb9ILPCKW9PJ4Opiecp-4" value="Battle name" style="edgeStyle=orthogonalEdgeStyle;rounded=0;orthogonalLoop=1;jettySize=auto;html=1;" parent="1" source="_Xb9ILPCKW9PJ4Opiecp-1" target="_Xb9ILPCKW9PJ4Opiecp-3" edge="1">
          <mxGeometry x="0.2501" relative="1" as="geometry">
            <Array as="points">
              <mxPoint x="900" y="420" />
            </Array>
            <mxPoint as="offset" />
          </mxGeometry>
        </mxCell>
        <mxCell id="_Xb9ILPCKW9PJ4Opiecp-25" value="Close tournament" style="edgeStyle=orthogonalEdgeStyle;rounded=0;orthogonalLoop=1;jettySize=auto;html=1;" parent="1" source="_Xb9ILPCKW9PJ4Opiecp-1" target="_Xb9ILPCKW9PJ4Opiecp-24" edge="1">
          <mxGeometry relative="1" as="geometry" />
        </mxCell>
        <mxCell id="_Xb9ILPCKW9PJ4Opiecp-32" value="Show entire ranking" style="edgeStyle=orthogonalEdgeStyle;rounded=0;orthogonalLoop=1;jettySize=auto;html=1;" parent="1" source="_Xb9ILPCKW9PJ4Opiecp-1" target="_Xb9ILPCKW9PJ4Opiecp-31" edge="1">
          <mxGeometry x="0.7922" relative="1" as="geometry">
            <Array as="points">
              <mxPoint x="900" y="1070" />
            </Array>
            <mxPoint as="offset" />
          </mxGeometry>
        </mxCell>
        <mxCell id="_Xb9ILPCKW9PJ4Opiecp-39" value="Create new&lt;br&gt;battle" style="edgeStyle=orthogonalEdgeStyle;rounded=0;orthogonalLoop=1;jettySize=auto;html=1;" parent="1" source="_Xb9ILPCKW9PJ4Opiecp-1" target="_Xb9ILPCKW9PJ4Opiecp-38" edge="1">
          <mxGeometry x="0.7813" relative="1" as="geometry">
            <Array as="points">
              <mxPoint x="900" y="900" />
            </Array>
            <mxPoint as="offset" />
          </mxGeometry>
        </mxCell>
        <mxCell id="69EWBOJnUGRtJQ2O3pgG-9" value="Prompt a EDU name&lt;br&gt;in the bar" style="edgeStyle=orthogonalEdgeStyle;rounded=0;orthogonalLoop=1;jettySize=auto;html=1;" parent="1" source="_Xb9ILPCKW9PJ4Opiecp-1" target="69EWBOJnUGRtJQ2O3pgG-8" edge="1">
          <mxGeometry x="0.8158" relative="1" as="geometry">
            <Array as="points">
              <mxPoint x="900" y="980" />
            </Array>
            <mxPoint as="offset" />
          </mxGeometry>
        </mxCell>
        <mxCell id="_Xb9ILPCKW9PJ4Opiecp-1" value="Tournament View" style="rounded=1;whiteSpace=wrap;html=1;absoluteArcSize=1;arcSize=14;strokeWidth=2;" parent="1" vertex="1">
          <mxGeometry x="800" y="320" width="200" height="40" as="geometry" />
        </mxCell>
        <mxCell id="_Xb9ILPCKW9PJ4Opiecp-6" value="Correct the battle" style="edgeStyle=orthogonalEdgeStyle;rounded=0;orthogonalLoop=1;jettySize=auto;html=1;" parent="1" source="_Xb9ILPCKW9PJ4Opiecp-3" target="_Xb9ILPCKW9PJ4Opiecp-5" edge="1">
          <mxGeometry x="0.3334" relative="1" as="geometry">
            <Array as="points">
              <mxPoint x="1140" y="500" />
            </Array>
            <mxPoint as="offset" />
          </mxGeometry>
        </mxCell>
        <mxCell id="_Xb9ILPCKW9PJ4Opiecp-9" value="Show entire ranking" style="edgeStyle=elbowEdgeStyle;rounded=0;orthogonalLoop=1;jettySize=auto;html=1;" parent="1" source="_Xb9ILPCKW9PJ4Opiecp-3" target="_Xb9ILPCKW9PJ4Opiecp-8" edge="1">
          <mxGeometry x="0.4928" relative="1" as="geometry">
            <Array as="points">
              <mxPoint x="1140" y="500" />
            </Array>
            <mxPoint as="offset" />
          </mxGeometry>
        </mxCell>
        <mxCell id="_Xb9ILPCKW9PJ4Opiecp-30" value="Show GH&lt;br&gt;repository" style="edgeStyle=orthogonalEdgeStyle;rounded=0;orthogonalLoop=1;jettySize=auto;html=1;" parent="1" source="_Xb9ILPCKW9PJ4Opiecp-3" target="_Xb9ILPCKW9PJ4Opiecp-29" edge="1">
          <mxGeometry x="0.6" relative="1" as="geometry">
            <Array as="points">
              <mxPoint x="1140" y="700" />
            </Array>
            <mxPoint as="offset" />
          </mxGeometry>
        </mxCell>
        <mxCell id="_Xb9ILPCKW9PJ4Opiecp-3" value="Battle View" style="rounded=1;whiteSpace=wrap;html=1;absoluteArcSize=1;arcSize=14;strokeWidth=2;" parent="1" vertex="1">
          <mxGeometry x="1040" y="400" width="200" height="40" as="geometry" />
        </mxCell>
        <mxCell id="_Xb9ILPCKW9PJ4Opiecp-11" value="Edit score&lt;br&gt;Evaluate code" style="edgeStyle=orthogonalEdgeStyle;rounded=0;orthogonalLoop=1;jettySize=auto;html=1;" parent="1" source="_Xb9ILPCKW9PJ4Opiecp-5" target="_Xb9ILPCKW9PJ4Opiecp-10" edge="1">
          <mxGeometry relative="1" as="geometry" />
        </mxCell>
        <mxCell id="_Xb9ILPCKW9PJ4Opiecp-15" value="Confirm all grades" style="edgeStyle=orthogonalEdgeStyle;rounded=0;orthogonalLoop=1;jettySize=auto;html=1;" parent="1" source="_Xb9ILPCKW9PJ4Opiecp-5" target="_Xb9ILPCKW9PJ4Opiecp-14" edge="1">
          <mxGeometry relative="1" as="geometry" />
        </mxCell>
        <mxCell id="_Xb9ILPCKW9PJ4Opiecp-5" value="Manual Evaluation" style="rounded=1;whiteSpace=wrap;html=1;absoluteArcSize=1;arcSize=14;strokeWidth=2;" parent="1" vertex="1">
          <mxGeometry x="1280" y="480" width="200" height="40" as="geometry" />
        </mxCell>
        <mxCell id="_Xb9ILPCKW9PJ4Opiecp-8" value="Full ranking visible" style="shape=tape;whiteSpace=wrap;html=1;strokeWidth=2;size=0.19" parent="1" vertex="1">
          <mxGeometry x="1280" y="590" width="200" height="48" as="geometry" />
        </mxCell>
        <mxCell id="_Xb9ILPCKW9PJ4Opiecp-13" value="Insert score &amp;amp; confirm" style="edgeStyle=orthogonalEdgeStyle;rounded=0;orthogonalLoop=1;jettySize=auto;html=1;" parent="1" source="_Xb9ILPCKW9PJ4Opiecp-10" target="_Xb9ILPCKW9PJ4Opiecp-5" edge="1">
          <mxGeometry relative="1" as="geometry">
            <Array as="points">
              <mxPoint x="1700" y="560" />
              <mxPoint x="1380" y="560" />
            </Array>
          </mxGeometry>
        </mxCell>
        <mxCell id="_Xb9ILPCKW9PJ4Opiecp-10" value="Code to evaluate" style="rounded=1;whiteSpace=wrap;html=1;absoluteArcSize=1;arcSize=14;strokeWidth=2;" parent="1" vertex="1">
          <mxGeometry x="1600" y="480" width="200" height="40" as="geometry" />
        </mxCell>
        <mxCell id="_Xb9ILPCKW9PJ4Opiecp-18" value="No" style="edgeStyle=orthogonalEdgeStyle;rounded=0;orthogonalLoop=1;jettySize=auto;html=1;" parent="1" source="_Xb9ILPCKW9PJ4Opiecp-14" target="_Xb9ILPCKW9PJ4Opiecp-5" edge="1">
          <mxGeometry relative="1" as="geometry">
            <Array as="points">
              <mxPoint x="1460" y="420" />
            </Array>
          </mxGeometry>
        </mxCell>
        <mxCell id="_Xb9ILPCKW9PJ4Opiecp-19" value="Yes" style="edgeStyle=orthogonalEdgeStyle;rounded=0;orthogonalLoop=1;jettySize=auto;html=1;" parent="1" source="_Xb9ILPCKW9PJ4Opiecp-14" target="_Xb9ILPCKW9PJ4Opiecp-3" edge="1">
          <mxGeometry relative="1" as="geometry" />
        </mxCell>
        <mxCell id="_Xb9ILPCKW9PJ4Opiecp-14" value="Confirm?" style="strokeWidth=2;html=1;shape=mxgraph.flowchart.decision;whiteSpace=wrap;" parent="1" vertex="1">
          <mxGeometry x="1330" y="400" width="100" height="40" as="geometry" />
        </mxCell>
        <mxCell id="_Xb9ILPCKW9PJ4Opiecp-26" value="No" style="edgeStyle=orthogonalEdgeStyle;rounded=0;orthogonalLoop=1;jettySize=auto;html=1;" parent="1" source="_Xb9ILPCKW9PJ4Opiecp-24" target="_Xb9ILPCKW9PJ4Opiecp-1" edge="1">
          <mxGeometry relative="1" as="geometry">
            <Array as="points">
              <mxPoint x="980" y="260" />
            </Array>
          </mxGeometry>
        </mxCell>
        <mxCell id="_Xb9ILPCKW9PJ4Opiecp-27" value="Yes" style="edgeStyle=orthogonalEdgeStyle;rounded=0;orthogonalLoop=1;jettySize=auto;html=1;" parent="1" source="_Xb9ILPCKW9PJ4Opiecp-24" target="3kDpuubRiTTmUzGeucn9-1" edge="1">
          <mxGeometry relative="1" as="geometry" />
        </mxCell>
        <mxCell id="_Xb9ILPCKW9PJ4Opiecp-24" value="Confirm?" style="strokeWidth=2;html=1;shape=mxgraph.flowchart.decision;whiteSpace=wrap;" parent="1" vertex="1">
          <mxGeometry x="850" y="240" width="100" height="40" as="geometry" />
        </mxCell>
        <mxCell id="_Xb9ILPCKW9PJ4Opiecp-29" value="GitHub" style="rounded=0;whiteSpace=wrap;html=1;absoluteArcSize=1;arcSize=14;strokeWidth=2;dashed=1;dashPattern=1 4;" parent="1" vertex="1">
          <mxGeometry x="1280" y="680" width="200" height="40" as="geometry" />
        </mxCell>
        <mxCell id="_Xb9ILPCKW9PJ4Opiecp-31" value="Full ranking visible" style="shape=tape;whiteSpace=wrap;html=1;strokeWidth=2;size=0.19" parent="1" vertex="1">
          <mxGeometry x="1040" y="1040" width="200" height="48" as="geometry" />
        </mxCell>
        <mxCell id="69EWBOJnUGRtJQ2O3pgG-2" style="edgeStyle=orthogonalEdgeStyle;rounded=0;orthogonalLoop=1;jettySize=auto;html=1;" parent="1" source="_Xb9ILPCKW9PJ4Opiecp-38" target="69EWBOJnUGRtJQ2O3pgG-1" edge="1">
          <mxGeometry relative="1" as="geometry" />
        </mxCell>
        <mxCell id="_Xb9ILPCKW9PJ4Opiecp-38" value="Form new_battle" style="rounded=1;whiteSpace=wrap;html=1;absoluteArcSize=1;arcSize=14;strokeWidth=2;" parent="1" vertex="1">
          <mxGeometry x="1040" y="880" width="200" height="40" as="geometry" />
        </mxCell>
        <mxCell id="69EWBOJnUGRtJQ2O3pgG-3" value="No" style="edgeStyle=orthogonalEdgeStyle;rounded=0;orthogonalLoop=1;jettySize=auto;html=1;" parent="1" source="69EWBOJnUGRtJQ2O3pgG-1" target="_Xb9ILPCKW9PJ4Opiecp-38" edge="1">
          <mxGeometry relative="1" as="geometry">
            <Array as="points">
              <mxPoint x="1220" y="810" />
            </Array>
          </mxGeometry>
        </mxCell>
        <mxCell id="69EWBOJnUGRtJQ2O3pgG-4" value="Yes" style="edgeStyle=orthogonalEdgeStyle;rounded=0;orthogonalLoop=1;jettySize=auto;html=1;" parent="1" source="69EWBOJnUGRtJQ2O3pgG-1" target="_Xb9ILPCKW9PJ4Opiecp-3" edge="1">
          <mxGeometry relative="1" as="geometry">
            <Array as="points">
              <mxPoint x="1060" y="810" />
            </Array>
          </mxGeometry>
        </mxCell>
        <mxCell id="69EWBOJnUGRtJQ2O3pgG-1" value="Accettable&lt;br&gt;data?" style="strokeWidth=2;html=1;shape=mxgraph.flowchart.decision;whiteSpace=wrap;" parent="1" vertex="1">
          <mxGeometry x="1080" y="780" width="120" height="60" as="geometry" />
        </mxCell>
        <mxCell id="69EWBOJnUGRtJQ2O3pgG-11" value="" style="edgeStyle=orthogonalEdgeStyle;rounded=0;orthogonalLoop=1;jettySize=auto;html=1;" parent="1" source="69EWBOJnUGRtJQ2O3pgG-8" target="69EWBOJnUGRtJQ2O3pgG-10" edge="1">
          <mxGeometry relative="1" as="geometry" />
        </mxCell>
        <mxCell id="69EWBOJnUGRtJQ2O3pgG-8" value="Select other EDU" style="rounded=1;whiteSpace=wrap;html=1;absoluteArcSize=1;arcSize=14;strokeWidth=2;" parent="1" vertex="1">
          <mxGeometry x="1040" y="960" width="200" height="40" as="geometry" />
        </mxCell>
        <mxCell id="hLO0OyDGBF90Dvjj2oF3-1" value="Yes&amp;nbsp;&lt;br&gt;No" style="edgeStyle=orthogonalEdgeStyle;rounded=0;orthogonalLoop=1;jettySize=auto;html=1;" edge="1" parent="1" source="69EWBOJnUGRtJQ2O3pgG-10" target="_Xb9ILPCKW9PJ4Opiecp-1">
          <mxGeometry relative="1" as="geometry">
            <Array as="points">
              <mxPoint x="1890" y="980" />
              <mxPoint x="1890" y="340" />
            </Array>
          </mxGeometry>
        </mxCell>
        <mxCell id="69EWBOJnUGRtJQ2O3pgG-10" value="Confirm?" style="strokeWidth=2;html=1;shape=mxgraph.flowchart.decision;whiteSpace=wrap;" parent="1" vertex="1">
          <mxGeometry x="1320" y="960" width="100" height="40" as="geometry" />
        </mxCell>
        <mxCell id="UqIcxXsMdPtoa4DHIYBH-4" value="Fill out&amp;nbsp;&lt;br&gt;form" style="edgeStyle=orthogonalEdgeStyle;rounded=0;orthogonalLoop=1;jettySize=auto;html=1;" edge="1" parent="1" source="UqIcxXsMdPtoa4DHIYBH-1" target="UqIcxXsMdPtoa4DHIYBH-3">
          <mxGeometry relative="1" as="geometry" />
        </mxCell>
        <mxCell id="GjFR1XU6Ks8SB_QgHypy-9" value="Show all others" style="edgeStyle=orthogonalEdgeStyle;rounded=0;orthogonalLoop=1;jettySize=auto;html=1;" edge="1" parent="1" source="UqIcxXsMdPtoa4DHIYBH-1" target="UqIcxXsMdPtoa4DHIYBH-10">
          <mxGeometry relative="1" as="geometry">
            <Array as="points">
              <mxPoint x="900" y="1500" />
            </Array>
          </mxGeometry>
        </mxCell>
        <mxCell id="GjFR1XU6Ks8SB_QgHypy-10" value="Show all mine" style="edgeStyle=orthogonalEdgeStyle;rounded=0;orthogonalLoop=1;jettySize=auto;html=1;" edge="1" parent="1" source="UqIcxXsMdPtoa4DHIYBH-1" target="UqIcxXsMdPtoa4DHIYBH-9">
          <mxGeometry x="0.2" relative="1" as="geometry">
            <Array as="points">
              <mxPoint x="900" y="1570" />
            </Array>
            <mxPoint as="offset" />
          </mxGeometry>
        </mxCell>
        <mxCell id="UqIcxXsMdPtoa4DHIYBH-1" value="Gamification badges" style="rounded=1;whiteSpace=wrap;html=1;absoluteArcSize=1;arcSize=14;strokeWidth=2;" vertex="1" parent="1">
          <mxGeometry x="800" y="1390" width="200" height="40" as="geometry" />
        </mxCell>
        <mxCell id="UqIcxXsMdPtoa4DHIYBH-6" value="" style="edgeStyle=orthogonalEdgeStyle;rounded=0;orthogonalLoop=1;jettySize=auto;html=1;" edge="1" parent="1" source="UqIcxXsMdPtoa4DHIYBH-3" target="UqIcxXsMdPtoa4DHIYBH-5">
          <mxGeometry relative="1" as="geometry" />
        </mxCell>
        <mxCell id="UqIcxXsMdPtoa4DHIYBH-3" value="Form create badge" style="rounded=1;whiteSpace=wrap;html=1;absoluteArcSize=1;arcSize=14;strokeWidth=2;" vertex="1" parent="1">
          <mxGeometry x="1160" y="1390" width="200" height="40" as="geometry" />
        </mxCell>
        <mxCell id="UqIcxXsMdPtoa4DHIYBH-7" value="No" style="edgeStyle=orthogonalEdgeStyle;rounded=0;orthogonalLoop=1;jettySize=auto;html=1;" edge="1" parent="1" source="UqIcxXsMdPtoa4DHIYBH-5" target="UqIcxXsMdPtoa4DHIYBH-3">
          <mxGeometry relative="1" as="geometry">
            <Array as="points">
              <mxPoint x="1340" y="1330" />
            </Array>
          </mxGeometry>
        </mxCell>
        <mxCell id="UqIcxXsMdPtoa4DHIYBH-8" value="Yes" style="edgeStyle=orthogonalEdgeStyle;rounded=0;orthogonalLoop=1;jettySize=auto;html=1;" edge="1" parent="1" source="UqIcxXsMdPtoa4DHIYBH-5" target="UqIcxXsMdPtoa4DHIYBH-1">
          <mxGeometry relative="1" as="geometry">
            <Array as="points">
              <mxPoint x="980" y="1330" />
            </Array>
          </mxGeometry>
        </mxCell>
        <mxCell id="UqIcxXsMdPtoa4DHIYBH-5" value="Accettable&lt;br&gt;data?" style="strokeWidth=2;html=1;shape=mxgraph.flowchart.decision;whiteSpace=wrap;" vertex="1" parent="1">
          <mxGeometry x="1200" y="1300" width="120" height="60" as="geometry" />
        </mxCell>
        <mxCell id="UqIcxXsMdPtoa4DHIYBH-9" value="All my badges visible" style="shape=tape;whiteSpace=wrap;html=1;strokeWidth=2;size=0.19" vertex="1" parent="1">
          <mxGeometry x="1160" y="1542" width="200" height="48" as="geometry" />
        </mxCell>
        <mxCell id="UqIcxXsMdPtoa4DHIYBH-10" value="All other badges visible" style="shape=tape;whiteSpace=wrap;html=1;strokeWidth=2;size=0.19" vertex="1" parent="1">
          <mxGeometry x="1160" y="1470" width="200" height="48" as="geometry" />
        </mxCell>
        <mxCell id="GjFR1XU6Ks8SB_QgHypy-3" style="edgeStyle=orthogonalEdgeStyle;rounded=0;orthogonalLoop=1;jettySize=auto;html=1;" edge="1" parent="1" source="n51QgqT_x0kIkijjbNnJ-1" target="GjFR1XU6Ks8SB_QgHypy-2">
          <mxGeometry relative="1" as="geometry">
            <Array as="points">
              <mxPoint x="820" y="1150" />
              <mxPoint x="820" y="1150" />
            </Array>
          </mxGeometry>
        </mxCell>
        <mxCell id="n51QgqT_x0kIkijjbNnJ-1" value="Form new_tournament" style="rounded=1;whiteSpace=wrap;html=1;absoluteArcSize=1;arcSize=14;strokeWidth=2;" vertex="1" parent="1">
          <mxGeometry x="800" y="1160" width="200" height="40" as="geometry" />
        </mxCell>
        <mxCell id="GjFR1XU6Ks8SB_QgHypy-5" value="Yes" style="edgeStyle=orthogonalEdgeStyle;rounded=0;orthogonalLoop=1;jettySize=auto;html=1;" edge="1" parent="1" source="GjFR1XU6Ks8SB_QgHypy-2" target="_Xb9ILPCKW9PJ4Opiecp-1">
          <mxGeometry relative="1" as="geometry">
            <Array as="points">
              <mxPoint x="820" y="710" />
              <mxPoint x="820" y="710" />
            </Array>
          </mxGeometry>
        </mxCell>
        <mxCell id="GjFR1XU6Ks8SB_QgHypy-6" value="No" style="edgeStyle=orthogonalEdgeStyle;rounded=0;orthogonalLoop=1;jettySize=auto;html=1;" edge="1" parent="1" source="GjFR1XU6Ks8SB_QgHypy-2" target="n51QgqT_x0kIkijjbNnJ-1">
          <mxGeometry relative="1" as="geometry">
            <Array as="points">
              <mxPoint x="900" y="1100" />
            </Array>
          </mxGeometry>
        </mxCell>
        <mxCell id="GjFR1XU6Ks8SB_QgHypy-2" value="Accettable&lt;br&gt;data?" style="strokeWidth=2;html=1;shape=mxgraph.flowchart.decision;whiteSpace=wrap;" vertex="1" parent="1">
          <mxGeometry x="760" y="1070" width="120" height="60" as="geometry" />
        </mxCell>
        <mxCell id="GjFR1XU6Ks8SB_QgHypy-7" value="All tournaments visible" style="shape=tape;whiteSpace=wrap;html=1;strokeWidth=2;size=0.19" vertex="1" parent="1">
          <mxGeometry x="800" y="1240" width="200" height="48" as="geometry" />
        </mxCell>
      </root>
    </mxGraphModel>
  </diagram>
  <diagram name="STU" id="qjI-gXXNr7W5RhKGzjqZ">
    <mxGraphModel dx="1018" dy="604" grid="1" gridSize="10" guides="1" tooltips="1" connect="1" arrows="1" fold="1" page="1" pageScale="1" pageWidth="1654" pageHeight="1169" math="0" shadow="0">
      <root>
        <mxCell id="E2R1L5wMaDELdanxGK0G-0" />
        <mxCell id="E2R1L5wMaDELdanxGK0G-1" parent="E2R1L5wMaDELdanxGK0G-0" />
        <mxCell id="E2R1L5wMaDELdanxGK0G-2" value="Tournament name" style="edgeStyle=orthogonalEdgeStyle;rounded=0;orthogonalLoop=1;jettySize=auto;html=1;" parent="E2R1L5wMaDELdanxGK0G-1" source="E2R1L5wMaDELdanxGK0G-6" target="E2R1L5wMaDELdanxGK0G-12" edge="1">
          <mxGeometry x="0.3334" relative="1" as="geometry">
            <Array as="points">
              <mxPoint x="660" y="340" />
            </Array>
            <mxPoint as="offset" />
          </mxGeometry>
        </mxCell>
        <mxCell id="E2R1L5wMaDELdanxGK0G-4" value="Show all" style="edgeStyle=orthogonalEdgeStyle;rounded=0;orthogonalLoop=1;jettySize=auto;html=1;" parent="E2R1L5wMaDELdanxGK0G-1" source="E2R1L5wMaDELdanxGK0G-6" target="E2R1L5wMaDELdanxGK0G-56" edge="1">
          <mxGeometry x="0.7682" relative="1" as="geometry">
            <Array as="points">
              <mxPoint x="660" y="830" />
            </Array>
            <mxPoint x="-1" as="offset" />
          </mxGeometry>
        </mxCell>
        <mxCell id="ICw34QBCLzTRbADO8IF2-2" value="&lt;span style=&quot;color: rgb(0, 0, 0); font-family: Helvetica; font-size: 11px; font-style: normal; font-variant-ligatures: normal; font-variant-caps: normal; font-weight: 400; letter-spacing: normal; orphans: 2; text-align: center; text-indent: 0px; text-transform: none; widows: 2; word-spacing: 0px; -webkit-text-stroke-width: 0px; background-color: rgb(255, 255, 255); text-decoration-thickness: initial; text-decoration-style: initial; text-decoration-color: initial; float: none; display: inline !important;&quot;&gt;Prompt a partial&lt;/span&gt;&lt;br style=&quot;border-color: var(--border-color); color: rgb(0, 0, 0); font-family: Helvetica; font-size: 11px; font-style: normal; font-variant-ligatures: normal; font-variant-caps: normal; font-weight: 400; letter-spacing: normal; orphans: 2; text-align: center; text-indent: 0px; text-transform: none; widows: 2; word-spacing: 0px; -webkit-text-stroke-width: 0px; text-decoration-thickness: initial; text-decoration-style: initial; text-decoration-color: initial;&quot;&gt;&lt;span style=&quot;color: rgb(0, 0, 0); font-family: Helvetica; font-size: 11px; font-style: normal; font-variant-ligatures: normal; font-variant-caps: normal; font-weight: 400; letter-spacing: normal; orphans: 2; text-align: center; text-indent: 0px; text-transform: none; widows: 2; word-spacing: 0px; -webkit-text-stroke-width: 0px; background-color: rgb(255, 255, 255); text-decoration-thickness: initial; text-decoration-style: initial; text-decoration-color: initial; float: none; display: inline !important;&quot;&gt;name in the bar&lt;/span&gt;" style="edgeStyle=orthogonalEdgeStyle;rounded=0;orthogonalLoop=1;jettySize=auto;html=1;" parent="E2R1L5wMaDELdanxGK0G-1" source="E2R1L5wMaDELdanxGK0G-6" target="ICw34QBCLzTRbADO8IF2-1" edge="1">
          <mxGeometry x="0.7971" relative="1" as="geometry">
            <Array as="points">
              <mxPoint x="660" y="910" />
            </Array>
            <mxPoint as="offset" />
          </mxGeometry>
        </mxCell>
        <mxCell id="E2R1L5wMaDELdanxGK0G-6" value="Dashboard" style="rounded=1;whiteSpace=wrap;html=1;absoluteArcSize=1;arcSize=14;strokeWidth=2;fillColor=#0050ef;fontColor=#ffffff;strokeColor=#001DBC;" parent="E2R1L5wMaDELdanxGK0G-1" vertex="1">
          <mxGeometry x="560" y="240" width="200" height="40" as="geometry" />
        </mxCell>
        <mxCell id="E2R1L5wMaDELdanxGK0G-7" value="Battle name" style="edgeStyle=orthogonalEdgeStyle;rounded=0;orthogonalLoop=1;jettySize=auto;html=1;" parent="E2R1L5wMaDELdanxGK0G-1" source="E2R1L5wMaDELdanxGK0G-12" target="E2R1L5wMaDELdanxGK0G-16" edge="1">
          <mxGeometry x="0.2501" relative="1" as="geometry">
            <Array as="points">
              <mxPoint x="900" y="420" />
            </Array>
            <mxPoint as="offset" />
          </mxGeometry>
        </mxCell>
        <mxCell id="E2R1L5wMaDELdanxGK0G-9" value="Show entire ranking" style="edgeStyle=orthogonalEdgeStyle;rounded=0;orthogonalLoop=1;jettySize=auto;html=1;" parent="E2R1L5wMaDELdanxGK0G-1" source="E2R1L5wMaDELdanxGK0G-12" target="E2R1L5wMaDELdanxGK0G-30" edge="1">
          <mxGeometry x="0.6847" relative="1" as="geometry">
            <Array as="points">
              <mxPoint x="900" y="744" />
            </Array>
            <mxPoint as="offset" />
          </mxGeometry>
        </mxCell>
        <mxCell id="aAxqJ0sYumye9cZwArSc-0" value="Subscribe" style="edgeStyle=orthogonalEdgeStyle;rounded=0;orthogonalLoop=1;jettySize=auto;html=1;" parent="E2R1L5wMaDELdanxGK0G-1" source="E2R1L5wMaDELdanxGK0G-12" target="Um4tT_J3ygnkA86EXSvx-0" edge="1">
          <mxGeometry relative="1" as="geometry">
            <Array as="points">
              <mxPoint x="820" y="250" />
            </Array>
          </mxGeometry>
        </mxCell>
        <mxCell id="E2R1L5wMaDELdanxGK0G-12" value="Tournament View" style="rounded=1;whiteSpace=wrap;html=1;absoluteArcSize=1;arcSize=14;strokeWidth=2;" parent="E2R1L5wMaDELdanxGK0G-1" vertex="1">
          <mxGeometry x="800" y="320" width="200" height="40" as="geometry" />
        </mxCell>
        <mxCell id="E2R1L5wMaDELdanxGK0G-15" value="Show GH&lt;br&gt;repository" style="edgeStyle=orthogonalEdgeStyle;rounded=0;orthogonalLoop=1;jettySize=auto;html=1;" parent="E2R1L5wMaDELdanxGK0G-1" source="E2R1L5wMaDELdanxGK0G-16" target="E2R1L5wMaDELdanxGK0G-29" edge="1">
          <mxGeometry x="0.6" relative="1" as="geometry">
            <Array as="points">
              <mxPoint x="1140" y="580" />
            </Array>
            <mxPoint as="offset" />
          </mxGeometry>
        </mxCell>
        <mxCell id="ICw34QBCLzTRbADO8IF2-6" value="Show entire ranking" style="edgeStyle=orthogonalEdgeStyle;rounded=0;orthogonalLoop=1;jettySize=auto;html=1;" parent="E2R1L5wMaDELdanxGK0G-1" source="E2R1L5wMaDELdanxGK0G-16" target="E2R1L5wMaDELdanxGK0G-20" edge="1">
          <mxGeometry x="0.3137" relative="1" as="geometry">
            <Array as="points">
              <mxPoint x="1140" y="504" />
            </Array>
            <mxPoint as="offset" />
          </mxGeometry>
        </mxCell>
        <mxCell id="V7y2QS47-I9qjhId1W5H-1" value="Invite&lt;br&gt;others" style="edgeStyle=orthogonalEdgeStyle;rounded=0;orthogonalLoop=1;jettySize=auto;html=1;" edge="1" parent="E2R1L5wMaDELdanxGK0G-1" source="E2R1L5wMaDELdanxGK0G-16" target="V7y2QS47-I9qjhId1W5H-0">
          <mxGeometry x="0.6111" relative="1" as="geometry">
            <Array as="points">
              <mxPoint x="1140" y="660" />
            </Array>
            <mxPoint as="offset" />
          </mxGeometry>
        </mxCell>
        <mxCell id="E2R1L5wMaDELdanxGK0G-16" value="Battle View" style="rounded=1;whiteSpace=wrap;html=1;absoluteArcSize=1;arcSize=14;strokeWidth=2;" parent="E2R1L5wMaDELdanxGK0G-1" vertex="1">
          <mxGeometry x="1040" y="400" width="200" height="40" as="geometry" />
        </mxCell>
        <mxCell id="E2R1L5wMaDELdanxGK0G-20" value="Full ranking visible" style="shape=tape;whiteSpace=wrap;html=1;strokeWidth=2;size=0.19" parent="E2R1L5wMaDELdanxGK0G-1" vertex="1">
          <mxGeometry x="1280" y="480" width="200" height="48" as="geometry" />
        </mxCell>
        <mxCell id="E2R1L5wMaDELdanxGK0G-29" value="GitHub" style="rounded=0;whiteSpace=wrap;html=1;absoluteArcSize=1;arcSize=14;strokeWidth=2;dashed=1;dashPattern=1 4;" parent="E2R1L5wMaDELdanxGK0G-1" vertex="1">
          <mxGeometry x="1280" y="560" width="200" height="40" as="geometry" />
        </mxCell>
        <mxCell id="E2R1L5wMaDELdanxGK0G-30" value="Full ranking visible" style="shape=tape;whiteSpace=wrap;html=1;strokeWidth=2;size=0.19" parent="E2R1L5wMaDELdanxGK0G-1" vertex="1">
          <mxGeometry x="1040" y="720" width="200" height="48" as="geometry" />
        </mxCell>
        <mxCell id="E2R1L5wMaDELdanxGK0G-56" value="All open tournaments visible" style="shape=tape;whiteSpace=wrap;html=1;strokeWidth=2;size=0.19" parent="E2R1L5wMaDELdanxGK0G-1" vertex="1">
          <mxGeometry x="800" y="800" width="200" height="48" as="geometry" />
        </mxCell>
        <mxCell id="aAxqJ0sYumye9cZwArSc-1" value="Yes&lt;br&gt;No" style="edgeStyle=orthogonalEdgeStyle;rounded=0;orthogonalLoop=1;jettySize=auto;html=1;" parent="E2R1L5wMaDELdanxGK0G-1" source="Um4tT_J3ygnkA86EXSvx-0" target="E2R1L5wMaDELdanxGK0G-12" edge="1">
          <mxGeometry relative="1" as="geometry">
            <Array as="points">
              <mxPoint x="980" y="250" />
            </Array>
          </mxGeometry>
        </mxCell>
        <mxCell id="Um4tT_J3ygnkA86EXSvx-0" value="Confirm?" style="strokeWidth=2;html=1;shape=mxgraph.flowchart.decision;whiteSpace=wrap;" parent="E2R1L5wMaDELdanxGK0G-1" vertex="1">
          <mxGeometry x="850" y="230" width="100" height="40" as="geometry" />
        </mxCell>
        <mxCell id="ICw34QBCLzTRbADO8IF2-1" value="Matching tournaments visible" style="shape=tape;whiteSpace=wrap;html=1;strokeWidth=2;size=0.19" parent="E2R1L5wMaDELdanxGK0G-1" vertex="1">
          <mxGeometry x="800" y="880" width="200" height="48" as="geometry" />
        </mxCell>
        <mxCell id="ICw34QBCLzTRbADO8IF2-3" value="Subscribe" style="edgeStyle=orthogonalEdgeStyle;rounded=0;orthogonalLoop=1;jettySize=auto;html=1;" parent="E2R1L5wMaDELdanxGK0G-1" source="E2R1L5wMaDELdanxGK0G-16" target="ICw34QBCLzTRbADO8IF2-5" edge="1">
          <mxGeometry relative="1" as="geometry">
            <mxPoint x="1060" y="400" as="sourcePoint" />
            <Array as="points">
              <mxPoint x="1060" y="330" />
            </Array>
          </mxGeometry>
        </mxCell>
        <mxCell id="ICw34QBCLzTRbADO8IF2-4" value="Yes&lt;br&gt;No" style="edgeStyle=orthogonalEdgeStyle;rounded=0;orthogonalLoop=1;jettySize=auto;html=1;" parent="E2R1L5wMaDELdanxGK0G-1" source="ICw34QBCLzTRbADO8IF2-5" target="E2R1L5wMaDELdanxGK0G-16" edge="1">
          <mxGeometry relative="1" as="geometry">
            <mxPoint x="1220" y="400" as="targetPoint" />
            <Array as="points">
              <mxPoint x="1220" y="330" />
            </Array>
          </mxGeometry>
        </mxCell>
        <mxCell id="ICw34QBCLzTRbADO8IF2-5" value="Confirm?" style="strokeWidth=2;html=1;shape=mxgraph.flowchart.decision;whiteSpace=wrap;" parent="E2R1L5wMaDELdanxGK0G-1" vertex="1">
          <mxGeometry x="1090" y="310" width="100" height="40" as="geometry" />
        </mxCell>
        <mxCell id="V7y2QS47-I9qjhId1W5H-2" value="Invite" style="edgeStyle=orthogonalEdgeStyle;rounded=0;orthogonalLoop=1;jettySize=auto;html=1;" edge="1" parent="E2R1L5wMaDELdanxGK0G-1" source="V7y2QS47-I9qjhId1W5H-0" target="E2R1L5wMaDELdanxGK0G-16">
          <mxGeometry relative="1" as="geometry">
            <Array as="points">
              <mxPoint x="1560" y="660" />
              <mxPoint x="1560" y="420" />
            </Array>
          </mxGeometry>
        </mxCell>
        <mxCell id="V7y2QS47-I9qjhId1W5H-0" value="Insert STU email" style="rounded=1;whiteSpace=wrap;html=1;absoluteArcSize=1;arcSize=14;strokeWidth=2;" vertex="1" parent="E2R1L5wMaDELdanxGK0G-1">
          <mxGeometry x="1280" y="640" width="200" height="40" as="geometry" />
        </mxCell>
      </root>
    </mxGraphModel>
  </diagram>
  <diagram id="HP7VZh3b6DGbn52O-BXJ" name="STU_profile">
    <mxGraphModel dx="698" dy="414" grid="1" gridSize="10" guides="1" tooltips="1" connect="1" arrows="1" fold="1" page="1" pageScale="1" pageWidth="1654" pageHeight="1169" math="0" shadow="0">
      <root>
        <mxCell id="0" />
        <mxCell id="1" parent="0" />
        <mxCell id="EN9kXw7XnAuJalQ_ZQAC-3" value="Fill the textbox&lt;br&gt;with a STU&#39;s name" style="edgeStyle=orthogonalEdgeStyle;rounded=0;orthogonalLoop=1;jettySize=auto;html=1;" parent="1" source="EN9kXw7XnAuJalQ_ZQAC-1" target="EN9kXw7XnAuJalQ_ZQAC-2" edge="1">
          <mxGeometry relative="1" as="geometry" />
        </mxCell>
        <mxCell id="EN9kXw7XnAuJalQ_ZQAC-1" value="Any view on the CKB platform" style="rounded=1;whiteSpace=wrap;html=1;absoluteArcSize=1;arcSize=14;strokeWidth=2;" parent="1" vertex="1">
          <mxGeometry x="520" y="200" width="200" height="40" as="geometry" />
        </mxCell>
        <mxCell id="Y2rSM4TSwMJa3-Xv1S7D-2" value="Select a badge&lt;br&gt;on the list" style="edgeStyle=orthogonalEdgeStyle;rounded=0;orthogonalLoop=1;jettySize=auto;html=1;" parent="1" source="EN9kXw7XnAuJalQ_ZQAC-2" target="Y2rSM4TSwMJa3-Xv1S7D-1" edge="1">
          <mxGeometry x="0.28" relative="1" as="geometry">
            <Array as="points">
              <mxPoint x="620" y="420" />
            </Array>
            <mxPoint as="offset" />
          </mxGeometry>
        </mxCell>
        <mxCell id="Y2rSM4TSwMJa3-Xv1S7D-4" value="Select a tournament&lt;br&gt;the STU is involved into" style="edgeStyle=orthogonalEdgeStyle;rounded=0;orthogonalLoop=1;jettySize=auto;html=1;" parent="1" source="EN9kXw7XnAuJalQ_ZQAC-2" target="Y2rSM4TSwMJa3-Xv1S7D-3" edge="1">
          <mxGeometry x="0.3939" relative="1" as="geometry">
            <Array as="points">
              <mxPoint x="620" y="500" />
            </Array>
            <mxPoint as="offset" />
          </mxGeometry>
        </mxCell>
        <mxCell id="EN9kXw7XnAuJalQ_ZQAC-2" value="STU&#39;s profile" style="rounded=1;whiteSpace=wrap;html=1;absoluteArcSize=1;arcSize=14;strokeWidth=2;" parent="1" vertex="1">
          <mxGeometry x="520" y="320" width="200" height="40" as="geometry" />
        </mxCell>
        <mxCell id="Y2rSM4TSwMJa3-Xv1S7D-1" value="Details visible" style="shape=tape;whiteSpace=wrap;html=1;strokeWidth=2;size=0.19" parent="1" vertex="1">
          <mxGeometry x="810" y="400" width="200" height="48" as="geometry" />
        </mxCell>
        <mxCell id="Y2rSM4TSwMJa3-Xv1S7D-3" value="Tournament page&lt;br&gt;[back to differentiation]" style="rounded=1;whiteSpace=wrap;html=1;absoluteArcSize=1;arcSize=14;strokeWidth=2;" parent="1" vertex="1">
          <mxGeometry x="810" y="480" width="200" height="40" as="geometry" />
        </mxCell>
      </root>
    </mxGraphModel>
  </diagram>
  <diagram id="KDG9dCPy07NDzmDfZd9V" name="Get_invited">
    <mxGraphModel dx="698" dy="414" grid="1" gridSize="10" guides="1" tooltips="1" connect="1" arrows="1" fold="1" page="1" pageScale="1" pageWidth="1654" pageHeight="1169" math="0" shadow="0">
      <root>
        <mxCell id="0" />
        <mxCell id="1" parent="0" />
        <mxCell id="MVT8mIgaqgxz6Keo6H72-2" value="Accept&lt;br&gt;invite" style="edgeStyle=orthogonalEdgeStyle;rounded=0;orthogonalLoop=1;jettySize=auto;html=1;" edge="1" parent="1" source="kJ_X8iABlSPCqIOjNZwj-1" target="MVT8mIgaqgxz6Keo6H72-1">
          <mxGeometry relative="1" as="geometry" />
        </mxCell>
        <mxCell id="kJ_X8iABlSPCqIOjNZwj-1" value="Invite email" style="rounded=1;whiteSpace=wrap;html=1;absoluteArcSize=1;arcSize=14;strokeWidth=2;" vertex="1" parent="1">
          <mxGeometry x="520" y="200" width="200" height="40" as="geometry" />
        </mxCell>
        <mxCell id="MVT8mIgaqgxz6Keo6H72-1" value="Invite email" style="rounded=1;whiteSpace=wrap;html=1;absoluteArcSize=1;arcSize=14;strokeWidth=2;" vertex="1" parent="1">
          <mxGeometry x="520" y="320" width="200" height="40" as="geometry" />
        </mxCell>
      </root>
    </mxGraphModel>
  </diagram>
</mxfile>
